<?xml version="1.0" encoding="utf-8"?>
<!-- Svg Vector Icons : http://www.onlinewebfonts.com/icon -->
<!DOCTYPE svg PUBLIC "-//W3C//DTD SVG 1.1//EN" "http://www.w3.org/Graphics/SVG/1.1/DTD/svg11.dtd">
<svg version="1.1" xmlns="http://www.w3.org/2000/svg" xmlns:xlink="http://www.w3.org/1999/xlink" x="0px" y="0px" viewBox="0 0 256 256" enable-background="new 0 0 256 256" xml:space="preserve">
<metadata> Svg Vector Icons : http://www.onlinewebfonts.com/icon </metadata>
<g><g><path fill="#000000" d="M216.5,188.8H112.4l-5.5-15.8l95.6-6.4l0,0c4.2-0.3,7.7-2.9,9.3-6.5l0,0l17.8-39.6c-8.3,5.3-17.9,8.5-28.3,9.1l-6.9,15.4l-95.1,6.3L78.9,92.9h64.5c-2.8-6.8-4.3-14.3-4.3-22.1H71.1l-6.5-18.4l0,0c-1.5-4.3-5.6-7.4-10.4-7.4H21.1C15,45,10,50,10,56.1c0,6.1,5,11.1,11.1,11.1h25.3L89,188.8H69c-12.2,0-22.1,9.9-22.1,22.1c0,12.2,9.9,22.1,22.1,22.1c12.2,0,22.1-9.9,22.1-22.1h103.3c0,12.2,9.9,22.1,22.1,22.1c12.2,0,22.1-9.9,22.1-22.1C238.7,198.7,228.7,188.8,216.5,188.8z M198.1,118.8c26.5,0,47.9-21.5,47.9-47.9c0-26.5-21.5-47.9-47.9-47.9s-47.9,21.5-47.9,47.9S171.6,118.8,198.1,118.8z M175.5,63.9c-2-2-3.3-4.8-3.3-7.8c0-6.1,5-11.1,11.1-11.1c3.1,0,5.8,1.2,7.8,3.3l6.9,6.9l6.9-6.9c2-2,4.8-3.2,7.8-3.2c6.1,0,11.1,5,11.1,11.1c0,3.1-1.2,5.8-3.3,7.8l-6.9,6.9l6.9,6.9c2,2,3.2,4.8,3.2,7.8c0,6.1-5,11.1-11.1,11.1c-3.1,0-5.8-1.2-7.8-3.3l-6.9-6.9l-6.9,6.9c-2,2-4.8,3.2-7.8,3.2c-6.1,0-11.1-5-11.1-11.1c0-3.1,1.2-5.8,3.3-7.8l6.9-6.9L175.5,63.9z"/></g></g>
</svg>