<?xml version="1.0" encoding="utf-8"?>
<!-- Svg Vector Icons : http://www.onlinewebfonts.com/icon -->
<!DOCTYPE svg PUBLIC "-//W3C//DTD SVG 1.1//EN" "http://www.w3.org/Graphics/SVG/1.1/DTD/svg11.dtd">
<svg version="1.1" xmlns="http://www.w3.org/2000/svg" xmlns:xlink="http://www.w3.org/1999/xlink" x="0px" y="0px" viewBox="0 0 256 256" enable-background="new 0 0 256 256" xml:space="preserve">
<metadata> Svg Vector Icons : http://www.onlinewebfonts.com/icon </metadata>
<g><g><g><path fill="#000000" d="M61.5,15.5c-11.4,1.9-20.6,6.8-29.7,16C21.5,41.8,15,54.4,11.6,70.9c-1.6,7.9-2.1,19-0.9,25.8c7,42.1,37.9,83.4,96.5,128.9c9.3,7.2,20.5,15.4,21.2,15.4c1.5,0,32.1-23.4,42.5-32.5l3.2-2.8l-1.7-2.2c-3.6-4.7-5.3-10.2-5.3-17c0-8,2.3-13.6,8-19.3c6.1-6.1,13-8.7,21.9-8.4c5.5,0.3,10.2,1.7,14.2,4.3c1.4,0.9,2.6,1.7,2.7,1.7c0.1,0,2.4-2.8,4.9-6.2c14.3-19,22.7-36.1,26-52.4c0.8-4,1.1-7.4,1.3-15.5c0.2-9.2,0.1-11.1-0.8-16.5c-5.2-30.6-22.1-51.9-45.9-58.1c-3.8-1-5.2-1.1-15.2-1.1c-9,0-11.8,0.1-15,0.8c-14.3,3.1-24.1,9.6-37.5,25l-2.5,2.8l-2.9-3.3c-5.1-5.8-12.7-13.1-16.4-15.6c-6.3-4.3-12.7-7.1-20.4-8.9C84.6,14.9,66.7,14.6,61.5,15.5z"/><path fill="#000000" d="M192.2,164.9c-8.4,1.2-16,8.4-18.3,17.1c-2.7,10.3,2.5,21.6,12.2,26.3c12.6,6.1,27-0.2,31.6-13.9c1.2-3.7,1.1-10.5-0.2-14.3C213.6,169.5,203.2,163.2,192.2,164.9z M213.1,187.6v4h-17.2h-17.2v-4v-4h17.2h17.2V187.6z"/></g></g></g>
</svg>