<?xml version="1.0" encoding="utf-8"?>
<!-- Svg Vector Icons : http://www.onlinewebfonts.com/icon -->
<!DOCTYPE svg PUBLIC "-//W3C//DTD SVG 1.1//EN" "http://www.w3.org/Graphics/SVG/1.1/DTD/svg11.dtd">
<svg version="1.1" xmlns="http://www.w3.org/2000/svg" xmlns:xlink="http://www.w3.org/1999/xlink" x="0px" y="0px" viewBox="0 0 256 256" enable-background="new 0 0 256 256" xml:space="preserve">
<metadata> Svg Vector Icons : http://www.onlinewebfonts.com/icon </metadata>
<g><g><g><path fill="#000000" d="M70.1,28.1C30,33.5,2.8,75.5,11.7,118.3c6.6,31.9,32.9,62.7,76.7,89.7c9.9,6.1,24,13.6,34.9,18.5l4.6,2.1l4.7-2.1c7.5-3.2,23.5-11.6,31.3-16.3c35.8-21.5,60.2-45.1,72.7-70.3c12.7-25.6,12.4-53.1-0.8-76.6c-10.3-18.4-27.4-31-47.3-34.8c-5-1-16.2-1.1-20.5-0.2c-7.7,1.5-15.2,4.7-22.1,9.3c-4.8,3.2-12.2,10.1-15.6,14.4c-1.2,1.7-2.4,3-2.5,3c-0.1,0-1-1-1.8-2.2c-4.6-6.1-12.6-13.2-19.5-17.4C95,28.6,83.4,26.2,70.1,28.1z M85.5,35.6c3.9,0.6,9.6,2.5,13.6,4.5c9.8,4.9,17.5,12,24.8,23c2,3,3.9,5.6,4.1,5.7c0.2,0,1.3-1.5,2.5-3.5c11.9-19.3,28.7-30.1,46.9-30.1c28.4,0,53,21.6,59.5,52.6c1.3,6.5,1.7,17.3,0.7,23.8c-2.4,15.6-9.1,30.1-21,44.9c-17.4,21.5-46.5,43.2-80.3,59.7l-8.4,4.1l-5.7-2.7c-30.7-14.4-60.6-35.7-78.2-55.4c-14.8-16.6-23.2-33-25.8-50.6c-1-6.6-0.6-17.4,0.7-23.9c6.5-30.6,30.7-52.2,58.6-52.4C80.3,35.2,83.8,35.4,85.5,35.6z"/></g></g></g>
</svg>